<svg aria-hidden="true" style="width:0;height:0;position:absolute;overflow:hidden" xmlns="http://www.w3.org/2000/svg"><defs><symbol id="icon-sectionbg1-1-1" viewBox="0 0 74 32"><path d="M0 0h73.704v32H0V0z"/></symbol><symbol id="icon-apples-svgrepo-com-1" viewBox="0 0 32 32"><path fill="#ffa5ba" style="fill:var(--color1,#ffa5ba)" d="M29.626 21.411c-1.292-.458-2.382-.344-3.242.018.145-.877.47-1.832 1.17-2.481a1.065 1.065 0 0 0-1.449-1.561c-1.229 1.14-1.706 2.748-1.874 4.081a4.036 4.036 0 0 0-1.058-.311l1.89-9.83a1.065 1.065 0 0 0-1.046-1.266h-.204c.094-.5.141-.997.137-1.47-.016-1.994-.903-3.495-2.374-4.017-1.41-.5-2.59-.35-3.507.066.145-.976.494-2.063 1.282-2.794A1.065 1.065 0 0 0 17.902.285c-1.32 1.225-1.815 2.965-1.982 4.386-.735-.348-1.644-.527-2.708-.33-1.094-1.571-2.613-2.296-4.089-1.942-1.451.349-2.358 1.115-2.901 1.962-.41-.899-.712-2.001-.452-3.036A1.065 1.065 0 0 0 3.705.806c-.439 1.746.095 3.476.729 4.758-1.016.137-2.117.65-3.049 1.866-.578.755-.773 1.698-.596 2.7a1.065 1.065 0 0 0-.674 1.197l3.809 19.809c.096.501.535.864 1.046.864h15.237c.511 0 .949-.362 1.046-.864l.038-.195c.287.198.596.363.927.487 1.266.471 2.447.278 3.044.118.316.085.795.179 1.364.179.506 0 1.084-.075 1.68-.297 2.36-.879 3.615-3.839 3.596-6.178-.015-1.904-.866-3.339-2.276-3.839zm-6.952-9.221c-.49 4.705-4.452 7.91-9.971 7.91s-9.481-3.204-9.971-7.91h19.942zm-6.642-4.675a1.047 1.047 0 0 0 1.86 0c.029-.048.29-.466.769-.777.629-.408 1.35-.46 2.203-.157.851.302.952 1.518.956 2.027.004.463-.064.962-.191 1.453h-7.126c.236-1.19.094-2.492-.289-3.669a2.12 2.12 0 0 1 1.047.346c.479.311.74.729.769.777zM3.077 8.724c.55-.719 1.182-1.068 1.932-1.069h.002c.57 0 1.016.208 1.066.232a1.05 1.05 0 0 0 1.079-.037c.331-.211.51-.592.481-.983-.006-.077-.116-1.893 1.983-2.397.876-.211 1.625.754 1.906 1.178.807 1.22 1.221 3.108.777 4.413H2.954c-.141-.443-.179-.943.122-1.336zM5.851 29.87 3.74 18.892c.138.133.281.263.427.389 2.208 1.901 5.239 2.948 8.535 2.948s6.328-1.047 8.535-2.948c.052-.044.102-.09.152-.135l-.431 2.243c-.02.007-.041.013-.061.021-1.41.5-2.261 1.935-2.276 3.839-.009 1.164.297 2.483.898 3.622l-.192.999H5.85zm21.711-.438c-.943.351-1.881.017-1.916.005a1.04 1.04 0 0 0-.768 0c-.009.004-.96.352-1.917-.005-1.338-.498-2.223-2.556-2.21-4.165.004-.466.095-1.578.858-1.849.349-.124.661-.175.939-.175 1.108 0 1.657.812 1.782 1.024a1.047 1.047 0 0 0 1.862 0c.156-.265.977-1.468 2.721-.849.763.271.854 1.383.858 1.849.013 1.609-.872 3.667-2.21 4.166z"/></symbol><symbol id="icon-Frame-4" viewBox="0 0 32 32"><path fill="#ffa5ba" style="fill:var(--color1,#ffa5ba)" d="M8.093.144c-.35.188-.553.563-.553 1.006.006.813.209 1.556.614 2.2l.178.294-.338.381c-.381.425-.473.581-.645 1.088-.141.412-.153 1.162-.031 1.581.43 1.438 1.854 2.269 3.248 1.9.473-.125.761-.281 1.203-.656l.375-.312.35.175c.196.1.528.244.743.325l.381.138v.7c0 1.106.227 1.762.81 2.356s1.498.9 2.29.762c.565-.1 1.117-.381 1.492-.762.583-.594.81-1.25.81-2.356v-.7l.387-.138c.209-.081.54-.225.737-.325l.35-.175.375.312c.442.375.731.531 1.203.656 1.394.369 2.818-.462 3.248-1.9.123-.419.111-1.169-.031-1.581-.172-.506-.264-.662-.645-1.088l-.338-.381.178-.294c.405-.644.608-1.387.614-2.2 0-.444-.203-.819-.553-1.006L24.281 0H8.355l-.264.144zM22.828 2.1c0 .019-.178.313-.399.663-.651 1.031-.626 1.256.239 2.169.313.331.602.662.645.737.233.463-.233 1.038-.749.919-.123-.025-.393-.244-.786-.631-.786-.775-1.056-.862-1.658-.519-.694.4-1.578.806-2.008.925-.608.175-.817.306-.976.638-.129.256-.141.362-.141 1.362 0 1.231-.049 1.431-.399 1.6-.252.125-.301.125-.553 0-.35-.169-.399-.369-.399-1.6 0-1-.012-1.106-.135-1.362-.166-.325-.375-.463-.982-.638-.528-.15-1.308-.494-1.738-.775-.405-.263-.761-.362-1.044-.313-.184.037-.368.181-.86.662-.405.394-.694.625-.817.65-.51.119-.976-.463-.743-.919.043-.075.332-.406.645-.737.866-.912.89-1.138.239-2.169-.221-.35-.399-.644-.399-.663 0-.025 2.929-.038 6.508-.038s6.508.013 6.508.038zM6.245 13.206c-.313.212-.485.512-.485.844 0 .225 3.119 16.925 3.229 17.275.055.194.282.425.522.55.227.125.387.125 6.809.125s6.582 0 6.809-.125c.239-.125.467-.356.522-.55.11-.35 3.229-17.05 3.229-17.275 0-.331-.172-.631-.485-.844l-.209-.144H6.454l-.209.144zm18.21 2.275c-.061.5-.418 1.587-.682 2.081-1.283 2.375-3.714 3.819-6.729 3.988-2.278.131-4.206-.331-5.82-1.394a7 7 0 0 1-2.265-2.438c-.307-.544-.712-1.712-.774-2.237l-.043-.356h16.356l-.043.356zM10.15 21.919c2.634 1.775 6.569 2.244 9.885 1.169a10.688 10.688 0 0 0 3.18-1.688c.276-.219.295-.219.264-.081-.018.081-.381 1.994-.804 4.244s-.78 4.156-.798 4.231l-.031.144H10.795l-.031-.144c-.018-.075-.375-1.981-.798-4.231s-.786-4.163-.804-4.244c-.031-.137-.012-.137.264.081.16.125.491.356.724.519z"/></symbol><symbol id="icon-84" viewBox="0 0 54 32"><path fill="#d41443" style="fill:var(--color2,#d41443)" d="M26.103 21.587c0 6.705-4.316 10.057-12.949 10.057C4.55 31.644.248 28.292.248 21.587c0-3.021.691-5.295 2.072-6.82-.374-.432-.719-1.18-1.036-2.244a11.58 11.58 0 0 1-.475-3.237c0-3.309 1.05-5.654 3.151-7.036C6.061.84 9.125.135 13.154.135s7.093.705 9.194 2.115c2.129 1.381 3.194 3.726 3.194 7.036a11.58 11.58 0 0 1-.475 3.237c-.317 1.065-.662 1.813-1.036 2.244 1.381 1.525 2.072 3.798 2.072 6.82zm-14.33.303c0 1.439.115 2.388.345 2.849.23.432.575.647 1.036.647.489 0 .834-.216 1.036-.647.23-.46.345-1.41.345-2.849s-.115-2.388-.345-2.849c-.201-.489-.547-.734-1.036-.734-.46 0-.806.245-1.036.734-.23.46-.345 1.41-.345 2.849zm1.424-10.316c.892 0 1.338-.849 1.338-2.547 0-1.726-.446-2.59-1.338-2.59-.95 0-1.424.863-1.424 2.59 0 1.698.475 2.547 1.424 2.547zM54.08 30.22c0 .317-.878.575-2.633.777-1.755.173-3.511.259-5.266.259s-2.892-.072-3.41-.216c-.489-.173-.734-.446-.734-.82v-5.309H31.246c-.978 0-1.468-2.388-1.468-7.165 0-.547 1.165-2.892 3.496-7.036 2.36-4.144 3.985-6.863 4.877-8.158.345-.489 1.64-.95 3.885-1.381s4.431-.647 6.561-.647c3.654 0 5.482.676 5.482 2.029V30.22zM42.772 18.177l.043-9.409-3.021 9.409h2.978z"/></symbol><symbol id="icon-721" viewBox="0 0 73 32"><path fill="#d41443" style="fill:var(--color2,#d41443)" d="M17.553 30.939c-.088.324-1.075.589-2.961.795-1.856.177-3.697.265-5.524.265s-2.99-.074-3.491-.221c-.501-.177-.751-.457-.751-.84 0-.619 1.989-7.188 5.966-19.709H1.733c-.412 0-.737-.707-.972-2.121C.643 8.43.584 7.532.584 6.412s.147-2.372.442-3.756C1.35 1.242 1.851.535 2.528.535h17.765c1.444 0 2.357.324 2.74.972.324.501.486 1.164.486 1.989 0 .795-.339 2.74-1.016 5.833s-1.561 6.894-2.651 11.401c-1.061 4.507-1.827 7.91-2.298 10.208zM30.106 12.07c-.825 0-1.547-.972-2.165-2.917-.589-1.944-.884-3.815-.884-5.612 0-.412.457-.869 1.37-1.37.913-.53 2.298-1.002 4.154-1.414s3.874-.619 6.054-.619c8.455 0 12.683 2.961 12.683 8.882 0 1.65-.354 3.196-1.061 4.64s-1.488 2.607-2.342 3.491a17.826 17.826 0 0 1-3.005 2.386c-1.326.825-2.593 1.473-3.8 1.944h8.838c.177 0 .368.088.574.265.206.147.427.619.663 1.414.236.766.354 1.738.354 2.917 0 1.149-.074 2.121-.221 2.917-.147.766-.324 1.326-.53 1.679-.442.795-.84 1.223-1.193 1.282l-.221.044H30.019c-1.856 0-2.784-2.902-2.784-8.706 0-.648 1.915-2.43 5.745-5.347 1.444-1.061 2.769-2.224 3.977-3.491s1.812-2.298 1.812-3.093c0-.884-.663-1.326-1.989-1.326s-2.725.339-4.198 1.016c-1.444.678-2.268 1.016-2.475 1.016zm42.788 18.869c0 .324-.899.589-2.696.795-1.797.177-3.594.265-5.391.265s-2.961-.074-3.491-.221c-.501-.177-.751-.457-.751-.84v-19.09h-4.507c-.501 0-.751-1.075-.751-3.226s.25-4.095.751-5.833c.147-.56 1.709-1.075 4.684-1.547s5.259-.707 6.85-.707 2.651.059 3.182.177c.53.118.928.265 1.193.442.265.147.471.324.619.53.206.324.309.633.309.928v28.326z"/></symbol><symbol id="icon-kg" viewBox="0 0 84 32"><path fill="#d41443" style="fill:var(--color2,#d41443)" d="M13.501 25.954c0 .247-.686.45-2.058.607-1.372.135-2.745.202-4.117.202s-2.261-.056-2.666-.169c-.382-.135-.574-.349-.574-.641V11.375H.644c-.382 0-.574-.821-.574-2.463s.191-3.127.574-4.454c.112-.427 1.305-.821 3.577-1.181s4.016-.54 5.231-.54c1.215 0 2.025.045 2.43.135s.709.202.911.337c.202.112.36.247.472.405.158.247.236.484.236.709v21.631zm13.131-13.937c.202-.18.742-.416 1.62-.709s1.867-.439 2.97-.439c1.125 0 2.07.169 2.835.506.787.315 1.395.72 1.822 1.215.45.495.799 1.114 1.046 1.856.405 1.215.607 2.452.607 3.712s-.056 2.216-.169 2.868c-.09.63-.337 1.339-.742 2.126a5.721 5.721 0 0 1-1.586 1.991c-.652.54-1.597 1.001-2.835 1.384-1.215.36-2.643.54-4.286.54-3.532 0-6.198-.967-7.998-2.902-1.8-1.957-2.7-5.107-2.7-9.449 0-4.364.844-7.503 2.531-9.415 1.687-1.935 4.252-2.902 7.694-2.902 2.362 0 4.409.18 6.142.54 1.755.337 2.632.742 2.632 1.215 0 .585-.225 1.609-.675 3.071-.427 1.462-.821 2.193-1.181 2.193-.112 0-.45-.056-1.012-.169-1.53-.315-2.925-.472-4.184-.472s-2.07.315-2.43.945c-.36.607-.54 1.507-.54 2.7.09-.112.236-.247.439-.405zm.743 3.037c-.652 0-.979 1.215-.979 3.645 0 2.407.326 3.611.979 3.611.697 0 1.046-1.204 1.046-3.611 0-2.43-.349-3.645-1.046-3.645zm22.815 10.9c0 .247-.63.45-1.89.607-1.26.135-2.576.202-3.948.202s-2.261-.056-2.666-.169c-.405-.135-.607-.349-.607-.641V2.601c0-.495.63-.979 1.89-1.451 1.282-.472 2.655-.709 4.117-.709 2.07 0 3.105.517 3.105 1.552v12.621h.439c1.08-5.152 1.879-7.728 2.396-7.728 1.305 0 2.88.304 4.724.911s2.767 1.282 2.767 2.025c0 .54-.45 1.575-1.35 3.105s-1.834 2.778-2.801 3.746c3.217 3.847 4.826 6.13 4.826 6.85 0 .675-1.024 1.496-3.071 2.463s-3.487 1.451-4.319 1.451c-.405 0-.832-.484-1.282-1.451-.45-.99-.934-2.463-1.451-4.421l-.877 1.046v3.341zm24.963-1.418v-1.957h-.27c-.09.112-.248.259-.472.439-.225.157-.788.382-1.687.675-.877.292-1.879.439-3.003.439-1.103 0-2.036-.169-2.801-.506s-1.361-.754-1.788-1.249c-.428-.517-.765-1.204-1.012-2.058-.383-1.327-.574-3.127-.574-5.399 0-2.61.551-4.612 1.654-6.007.427-.562 1.057-1.035 1.89-1.417.855-.405 1.766-.607 2.733-.607s1.766.112 2.396.337c.63.202 1.102.45 1.417.742.63.63.99 1.181 1.08 1.654l.034.304h.27l.304-1.316c.225-.945 2.002-1.417 5.332-1.417 1.485 0 2.384.225 2.7.675.18.27.292.529.337.776.045.225.067.574.067 1.046v14.139c0 2.655-.866 4.679-2.598 6.074s-4.275 2.092-7.626 2.092c-3.555 0-5.973-.349-7.255-1.046-.563-.315-.844-.641-.844-.979 0-.54.214-1.451.641-2.733.45-1.282.866-1.924 1.249-1.924.09 0 .405.079.945.236 1.709.45 3.093.675 4.151.675 1.08 0 1.8-.135 2.16-.405.382-.27.574-.697.574-1.282zm-1.349-4.251c.247 0 .45-.09.607-.27s.236-.382.236-.607v-6.952c-.09-.472-.337-.709-.742-.709-.855 0-1.282 1.406-1.282 4.218 0 1.305.101 2.351.304 3.138.225.787.517 1.181.877 1.181z"/></symbol><symbol id="icon-Group" viewBox="0 0 28 32"><path fill="#ffa5ba" style="fill:var(--color1,#ffa5ba);stroke:var(--color1,#ffa5ba)" stroke="#ffa5ba" stroke-width=".308" d="M.667 11.16c.587 2.696 1.894 5.088 3.953 7.163 1.839 1.86 3.455 2.99 6.008 4.163h.001l1.238.581v8.47h1.73v-7.901l.159.047c.229.066.567.066.796 0h.001l.159-.046v7.901h1.73v-8.481l1.179-.536c2.469-1.138 4.263-2.372 6.008-4.141 2.786-2.829 4.217-6.052 4.217-9.561.012-3.851-2.01-7-5.213-8.076-.689-.24-1.054-.274-2.316-.262M.667 11.16l13.614-8.305-.098-.072M.667 11.16C.533 10.545.465 9.706.462 8.884c-.003-.82.059-1.636.194-2.201.723-3.189 2.943-5.549 5.82-6.152M.667 11.16 6.475.531M20.317.482zm0 0c-.658.006-1.07.02-1.444.074-.376.054-.709.146-1.208.303h-.002c-1.188.385-2.356.994-3.133 1.632l-.001.001-.346.291m0 0-.543-.401C11.968 1.152 10.255.553 8.244.471h-.001A15.571 15.571 0 0 0 7.207.47c-.312.01-.586.03-.733.063m7.709 2.25L6.475.532m6.684 3.701c-.238-.226-.669-.537-1.14-.832a9.827 9.827 0 0 0-1.336-.718 10.047 10.047 0 0 0-1.5-.419c-1.975-.362-3.49.022-4.825 1.21l-.001.001a6.666 6.666 0 0 0-.795.844 3.015 3.015 0 0 0-.232.33l.243.044c.238.042.56.096.909.154 1.231.192 2.186.449 3.209.942 1.02.492 2.103 1.215 3.592 2.33l.001.001c.605.464 1.625 1.059 2.651 1.541l.003.001c.458.226.898.452 1.238.636.17.092.316.175.427.242.056.034.104.064.142.091a.608.608 0 0 1 .098.08c.128.137.234.274.318.447s.141.372.182.631c.081.512.098 1.281.098 2.571 0 1.17.003 1.784.034 2.135.015.175.036.271.061.332a.362.362 0 0 0 .096.135c.246.24.583.23.762.031l.004-.004c.05-.052.097-.135.125-.456.027-.32.033-.837.033-1.723 0-1.173.029-1.886.159-2.378a1.75 1.75 0 0 1 .292-.622 2.34 2.34 0 0 1 .488-.459l.002-.001a1.77 1.77 0 0 1 .647-.308c.27-.071.643-.124 1.24-.193h.001c1.864-.207 2.941-.447 4.23-.937.405-.154.704-.268.927-.371.225-.103.357-.188.439-.273a.501.501 0 0 0 .134-.302c.02-.142.014-.324.002-.588v-.003a8.836 8.836 0 0 0-.256-1.707v-.001c-.709-2.681-2.921-4.56-5.316-4.56-1.787 0-3.967.84-5.314 2.061l-.001.001c-.22.197-.405.352-.572.459s-.327.175-.495.182a.843.843 0 0 1-.486-.149 3.572 3.572 0 0 1-.517-.425zm-9.972.388-.003-.001.003.001zm5.826 3.976-.001-.001C7.78 7.682 6.435 7.012 5.25 6.717a14.269 14.269 0 0 0-1.803-.295 6.97 6.97 0 0 0-.715-.04 1.234 1.234 0 0 0-.224.019 2.17 2.17 0 0 0-.148.496 8.7 8.7 0 0 0-.127.893c-.063.665-.077 1.407-.019 1.947.316 2.926 1.588 5.398 4.032 7.743 1.927 1.865 4.325 3.319 7.043 4.235l.002.001.862.305.874-.306c2.542-.871 5.036-2.326 6.844-4.018 1.246-1.168 1.889-1.964 2.711-3.37l.001-.001c.254-.428.603-1.203.874-1.892.135-.344.248-.661.32-.899a2.99 2.99 0 0 0 .058-.218 13.238 13.238 0 0 0-.912.3h-.001c-1.188.432-2.967.816-4.402.944h-.001l-.063.005c-.323.027-.548.045-.715.089-.166.044-.252.106-.311.216-.067.126-.107.328-.127.676-.018.322-.018.746-.018 1.313v.121c0 1.098-.014 1.745-.096 2.184a1.768 1.768 0 0 1-.189.553 1.974 1.974 0 0 1-.328.417c-.235.247-.47.425-.733.54s-.547.164-.871.164c-.5 0-.927-.099-1.284-.317s-.63-.547-.835-.983c-.105-.223-.164-.436-.198-.864-.033-.423-.042-1.067-.042-2.156 0-.906-.009-1.537-.031-1.957a4.775 4.775 0 0 0-.042-.47.824.824 0 0 0-.035-.144c-.001-.001-.007-.008-.023-.02s-.039-.029-.068-.048a3.193 3.193 0 0 0-.225-.13 8.752 8.752 0 0 0-.654-.31c-1.006-.42-2.333-1.164-3.138-1.761-.296-.219-.959-.703-1.48-1.084l-.001-.001zM2.49 6.407c-.002.001-.002.001 0 0zm.036-.038-.001.002.001-.002z"/></symbol></defs></svg>